<svg xmlns="http://www.w3.org/2000/svg" width="25" height="24" viewBox="0 0 25 24" fill="none">
  <path d="M7.83337 21H5.83337C5.28337 21 4.81254 20.8042 4.42087 20.4125C4.02921 20.0208 3.83337 19.55 3.83337 19V12C3.83337 10.75 4.07087 9.57917 4.54587 8.4875C5.02087 7.39583 5.66254 6.44583 6.47087 5.6375C7.27921 4.82917 8.22921 4.1875 9.32087 3.7125C10.4125 3.2375 11.5834 3 12.8334 3C14.0834 3 15.2542 3.2375 16.3459 3.7125C17.4375 4.1875 18.3875 4.82917 19.1959 5.6375C20.0042 6.44583 20.6459 7.39583 21.1209 8.4875C21.5959 9.57917 21.8334 10.75 21.8334 12V19C21.8334 19.55 21.6375 20.0208 21.2459 20.4125C20.8542 20.8042 20.3834 21 19.8334 21H17.8334C17.2834 21 16.8125 20.8042 16.4209 20.4125C16.0292 20.0208 15.8334 19.55 15.8334 19V15C15.8334 14.45 16.0292 13.9792 16.4209 13.5875C16.8125 13.1958 17.2834 13 17.8334 13H19.8334V12C19.8334 10.05 19.1542 8.39583 17.7959 7.0375C16.4375 5.67917 14.7834 5 12.8334 5C10.8834 5 9.22921 5.67917 7.87087 7.0375C6.51254 8.39583 5.83337 10.05 5.83337 12V13H7.83337C8.38337 13 8.85421 13.1958 9.24587 13.5875C9.63754 13.9792 9.83337 14.45 9.83337 15V19C9.83337 19.55 9.63754 20.0208 9.24587 20.4125C8.85421 20.8042 8.38337 21 7.83337 21Z" fill="#F2EAFD"/>
</svg>