<svg xmlns="http://www.w3.org/2000/svg" width="25" height="24" viewBox="0 0 25 24" fill="none">
  <path d="M12.1667 20.3249C11.9334 20.3249 11.6959 20.2832 11.4542 20.1999C11.2126 20.1166 11.0001 19.9832 10.8167 19.7999L9.09175 18.2249C7.32508 16.6082 5.72925 15.0041 4.30425 13.4124C2.87925 11.8207 2.16675 10.0666 2.16675 8.1499C2.16675 6.58324 2.69175 5.2749 3.74175 4.2249C4.79175 3.1749 6.10008 2.6499 7.66675 2.6499C8.55008 2.6499 9.38341 2.8374 10.1667 3.2124C10.9501 3.5874 11.6167 4.0999 12.1667 4.7499C12.7167 4.0999 13.3834 3.5874 14.1667 3.2124C14.9501 2.8374 15.7834 2.6499 16.6667 2.6499C18.2334 2.6499 19.5417 3.1749 20.5917 4.2249C21.6417 5.2749 22.1667 6.58324 22.1667 8.1499C22.1667 10.0666 21.4584 11.8249 20.0417 13.4249C18.6251 15.0249 17.0167 16.6332 15.2167 18.2499L13.5167 19.7999C13.3334 19.9832 13.1209 20.1166 12.8792 20.1999C12.6376 20.2832 12.4001 20.3249 12.1667 20.3249Z" fill="#F2EAFD"/>
</svg>