<svg xmlns="http://www.w3.org/2000/svg" width="25" height="24" viewBox="0 0 25 24" fill="none">
  <path d="M12.1667 20.325C11.9334 20.325 11.6959 20.2834 11.4542 20.2C11.2126 20.1167 11.0001 19.9834 10.8167 19.8L9.09175 18.225C7.32508 16.6084 5.72925 15.0042 4.30425 13.4125C2.87925 11.8209 2.16675 10.0667 2.16675 8.15002C2.16675 6.58336 2.69175 5.27502 3.74175 4.22502C4.79175 3.17502 6.10008 2.65002 7.66675 2.65002C8.55008 2.65002 9.38341 2.83752 10.1667 3.21252C10.9501 3.58752 11.6167 4.10002 12.1667 4.75002C12.7167 4.10002 13.3834 3.58752 14.1667 3.21252C14.9501 2.83752 15.7834 2.65002 16.6667 2.65002C18.2334 2.65002 19.5417 3.17502 20.5917 4.22502C21.6417 5.27502 22.1667 6.58336 22.1667 8.15002C22.1667 10.0667 21.4584 11.825 20.0417 13.425C18.6251 15.025 17.0167 16.6334 15.2167 18.25L13.5167 19.8C13.3334 19.9834 13.1209 20.1167 12.8792 20.2C12.6376 20.2834 12.4001 20.325 12.1667 20.325Z" fill="#7D2EEE"/>
</svg>