<svg width="24" height="24" viewBox="0 0 24 24" fill="none" xmlns="http://www.w3.org/2000/svg">
<path d="M3.54995 12.0001L10.9 19.3501C11.15 19.6001 11.2708 19.8918 11.2625 20.2251C11.2541 20.5584 11.125 20.8501 10.875 21.1001C10.625 21.3501 10.3333 21.4751 9.99995 21.4751C9.66662 21.4751 9.37495 21.3501 9.12495 21.1001L1.42495 13.4251C1.22495 13.2251 1.07495 13.0001 0.974951 12.7501C0.874951 12.5001 0.824951 12.2501 0.824951 12.0001C0.824951 11.7501 0.874951 11.5001 0.974951 11.2501C1.07495 11.0001 1.22495 10.7751 1.42495 10.5751L9.12495 2.87511C9.37495 2.62511 9.67078 2.50428 10.0125 2.51261C10.3541 2.52094 10.65 2.65011 10.9 2.90011C11.15 3.15011 11.275 3.44178 11.275 3.77511C11.275 4.10844 11.15 4.40011 10.9 4.65011L3.54995 12.0001Z" fill="#E8EAED"/>
</svg>
