<svg width="24" height="25" viewBox="0 0 24 25" fill="none" xmlns="http://www.w3.org/2000/svg">
<path d="M12 20.925C11.7667 20.925 11.5292 20.8833 11.2875 20.8C11.0458 20.7167 10.8333 20.5833 10.65 20.4L8.925 18.825C7.15833 17.2083 5.5625 15.6042 4.1375 14.0125C2.7125 12.4208 2 10.6667 2 8.75C2 7.18333 2.525 5.875 3.575 4.825C4.625 3.775 5.93333 3.25 7.5 3.25C8.38333 3.25 9.21667 3.4375 10 3.8125C10.7833 4.1875 11.45 4.7 12 5.35C12.55 4.7 13.2167 4.1875 14 3.8125C14.7833 3.4375 15.6167 3.25 16.5 3.25C18.0667 3.25 19.375 3.775 20.425 4.825C21.475 5.875 22 7.18333 22 8.75C22 10.6667 21.2917 12.425 19.875 14.025C18.4583 15.625 16.85 17.2333 15.05 18.85L13.35 20.4C13.1667 20.5833 12.9542 20.7167 12.7125 20.8C12.4708 20.8833 12.2333 20.925 12 20.925Z" fill="white" fill-opacity="0.8"/>
</svg>
