<svg width="49" height="49" viewBox="0 0 49 49" fill="none" xmlns="http://www.w3.org/2000/svg">
<path d="M32.5 38.5C31.4 38.5 30.4583 38.1083 29.675 37.325C28.8917 36.5417 28.5 35.6 28.5 34.5V14.5C28.5 13.4 28.8917 12.4583 29.675 11.675C30.4583 10.8917 31.4 10.5 32.5 10.5C33.6 10.5 34.5417 10.8917 35.325 11.675C36.1083 12.4583 36.5 13.4 36.5 14.5V34.5C36.5 35.6 36.1083 36.5417 35.325 37.325C34.5417 38.1083 33.6 38.5 32.5 38.5ZM16.5 38.5C15.4 38.5 14.4583 38.1083 13.675 37.325C12.8917 36.5417 12.5 35.6 12.5 34.5V14.5C12.5 13.4 12.8917 12.4583 13.675 11.675C14.4583 10.8917 15.4 10.5 16.5 10.5C17.6 10.5 18.5417 10.8917 19.325 11.675C20.1083 12.4583 20.5 13.4 20.5 14.5V34.5C20.5 35.6 20.1083 36.5417 19.325 37.325C18.5417 38.1083 17.6 38.5 16.5 38.5Z" fill="#E8EAED"/>
</svg>
