<svg width="49" height="49" viewBox="0 0 49 49" fill="none" xmlns="http://www.w3.org/2000/svg">
<path d="M11.5 34.5V14.5C11.5 13.9333 11.6917 13.4583 12.075 13.075C12.4583 12.6917 12.9333 12.5 13.5 12.5C14.0667 12.5 14.5417 12.6917 14.925 13.075C15.3083 13.4583 15.5 13.9333 15.5 14.5V34.5C15.5 35.0667 15.3083 35.5417 14.925 35.925C14.5417 36.3083 14.0667 36.5 13.5 36.5C12.9333 36.5 12.4583 36.3083 12.075 35.925C11.6917 35.5417 11.5 35.0667 11.5 34.5ZM34.4 34.45L22 26.15C21.7 25.95 21.475 25.7083 21.325 25.425C21.175 25.1417 21.1 24.8333 21.1 24.5C21.1 24.1667 21.175 23.8583 21.325 23.575C21.475 23.2917 21.7 23.05 22 22.85L34.4 14.55C34.5667 14.4167 34.75 14.3333 34.95 14.3C35.15 14.2667 35.3333 14.25 35.5 14.25C36.0333 14.25 36.5 14.4333 36.9 14.8C37.3 15.1667 37.5 15.65 37.5 16.25V32.75C37.5 33.35 37.3 33.8333 36.9 34.2C36.5 34.5667 36.0333 34.75 35.5 34.75C35.3333 34.75 35.15 34.7333 34.95 34.7C34.75 34.6667 34.5667 34.5833 34.4 34.45Z" fill="#E8EAED"/>
</svg>
