<svg width="24" height="25" viewBox="0 0 24 25" fill="none" xmlns="http://www.w3.org/2000/svg">
<path d="M8 17.675V7.32495C8 7.04162 8.1 6.80412 8.3 6.61245C8.5 6.42078 8.73333 6.32495 9 6.32495C9.08333 6.32495 9.17083 6.33745 9.2625 6.36245C9.35417 6.38745 9.44167 6.42495 9.525 6.47495L17.675 11.65C17.825 11.75 17.9375 11.875 18.0125 12.025C18.0875 12.175 18.125 12.3333 18.125 12.5C18.125 12.6666 18.0875 12.825 18.0125 12.975C17.9375 13.125 17.825 13.25 17.675 13.35L9.525 18.525C9.44167 18.575 9.35417 18.6125 9.2625 18.6375C9.17083 18.6625 9.08333 18.675 9 18.675C8.73333 18.675 8.5 18.5791 8.3 18.3875C8.1 18.1958 8 17.9583 8 17.675Z" fill="#E8EAED"/>
</svg>
