<svg width="49" height="49" viewBox="0 0 49 49" fill="none" xmlns="http://www.w3.org/2000/svg">
<path d="M33.5 34.5V14.5C33.5 13.9333 33.6917 13.4583 34.075 13.075C34.4583 12.6917 34.9333 12.5 35.5 12.5C36.0667 12.5 36.5417 12.6917 36.925 13.075C37.3083 13.4583 37.5 13.9333 37.5 14.5V34.5C37.5 35.0667 37.3083 35.5417 36.925 35.925C36.5417 36.3083 36.0667 36.5 35.5 36.5C34.9333 36.5 34.4583 36.3083 34.075 35.925C33.6917 35.5417 33.5 35.0667 33.5 34.5ZM11.5 32.75V16.25C11.5 15.65 11.7 15.1667 12.1 14.8C12.5 14.4333 12.9667 14.25 13.5 14.25C13.6667 14.25 13.85 14.2667 14.05 14.3C14.25 14.3333 14.4333 14.4167 14.6 14.55L27 22.85C27.3 23.05 27.525 23.2917 27.675 23.575C27.825 23.8583 27.9 24.1667 27.9 24.5C27.9 24.8333 27.825 25.1417 27.675 25.425C27.525 25.7083 27.3 25.95 27 26.15L14.6 34.45C14.4333 34.5833 14.25 34.6667 14.05 34.7C13.85 34.7333 13.6667 34.75 13.5 34.75C12.9667 34.75 12.5 34.5667 12.1 34.2C11.7 33.8333 11.5 33.35 11.5 32.75Z" fill="#E8EAED"/>
</svg>
