<svg width="49" height="49" viewBox="0 0 49 49" fill="none" xmlns="http://www.w3.org/2000/svg">
<path d="M16.5 34.8499V14.1499C16.5 13.5832 16.7 13.1082 17.1 12.7249C17.5 12.3416 17.9667 12.1499 18.5 12.1499C18.6667 12.1499 18.8417 12.1749 19.025 12.2249C19.2083 12.2749 19.3833 12.3499 19.55 12.4499L35.85 22.7999C36.15 22.9999 36.375 23.2499 36.525 23.5499C36.675 23.8499 36.75 24.1666 36.75 24.4999C36.75 24.8332 36.675 25.1499 36.525 25.4499C36.375 25.7499 36.15 25.9999 35.85 26.1999L19.55 36.5499C19.3833 36.6499 19.2083 36.7249 19.025 36.7749C18.8417 36.8249 18.6667 36.8499 18.5 36.8499C17.9667 36.8499 17.5 36.6582 17.1 36.2749C16.7 35.8916 16.5 35.4166 16.5 34.8499Z" fill="#E8EAED"/>
</svg>
