<svg xmlns="http://www.w3.org/2000/svg" width="32" height="32" viewBox="0 0 32 32" fill="none">
  <path d="M16 19.9666C15.8222 19.9666 15.6555 19.9388 15.5 19.8833C15.3444 19.8277 15.2 19.7333 15.0667 19.5999L8.93332 13.4666C8.68887 13.2222 8.56665 12.9111 8.56665 12.5333C8.56665 12.1555 8.68887 11.8444 8.93332 11.5999C9.17776 11.3555 9.48887 11.2333 9.86665 11.2333C10.2444 11.2333 10.5555 11.3555 10.8 11.5999L16 16.7999L21.2 11.5999C21.4444 11.3555 21.7555 11.2333 22.1333 11.2333C22.5111 11.2333 22.8222 11.3555 23.0667 11.5999C23.3111 11.8444 23.4333 12.1555 23.4333 12.5333C23.4333 12.9111 23.3111 13.2222 23.0667 13.4666L16.9333 19.5999C16.8 19.7333 16.6555 19.8277 16.5 19.8833C16.3444 19.9388 16.1778 19.9666 16 19.9666Z" fill="#E8EAED"/>
</svg>