<svg xmlns="http://www.w3.org/2000/svg" width="32" height="32" viewBox="0 0 32 32" fill="none">
  <path d="M16.0001 17.8666L9.46673 24.3999C9.22229 24.6444 8.91118 24.7666 8.5334 24.7666C8.15562 24.7666 7.84451 24.6444 7.60007 24.3999C7.35562 24.1555 7.2334 23.8444 7.2334 23.4666C7.2334 23.0888 7.35562 22.7777 7.60007 22.5333L14.1334 15.9999L7.60007 9.46661C7.35562 9.22217 7.2334 8.91105 7.2334 8.53328C7.2334 8.1555 7.35562 7.84439 7.60007 7.59994C7.84451 7.3555 8.15562 7.23328 8.5334 7.23328C8.91118 7.23328 9.22229 7.3555 9.46673 7.59994L16.0001 14.1333L22.5334 7.59994C22.7778 7.3555 23.089 7.23328 23.4667 7.23328C23.8445 7.23328 24.1556 7.3555 24.4001 7.59994C24.6445 7.84439 24.7667 8.1555 24.7667 8.53328C24.7667 8.91105 24.6445 9.22217 24.4001 9.46661L17.8667 15.9999L24.4001 22.5333C24.6445 22.7777 24.7667 23.0888 24.7667 23.4666C24.7667 23.8444 24.6445 24.1555 24.4001 24.3999C24.1556 24.6444 23.8445 24.7666 23.4667 24.7666C23.089 24.7666 22.7778 24.6444 22.5334 24.3999L16.0001 17.8666Z" fill="#E8EAED"/>
</svg>