<svg xmlns="http://www.w3.org/2000/svg" width="25" height="24" viewBox="0 0 25 24" fill="none">
  <path d="M12.5 17.5C13.75 17.5 14.8125 17.0625 15.6875 16.1875C16.5625 15.3125 17 14.25 17 13C17 11.75 16.5625 10.6875 15.6875 9.8125C14.8125 8.9375 13.75 8.5 12.5 8.5C11.25 8.5 10.1875 8.9375 9.3125 9.8125C8.4375 10.6875 8 11.75 8 13C8 14.25 8.4375 15.3125 9.3125 16.1875C10.1875 17.0625 11.25 17.5 12.5 17.5ZM12.5 15.5C11.8 15.5 11.2083 15.2583 10.725 14.775C10.2417 14.2917 10 13.7 10 13C10 12.3 10.2417 11.7083 10.725 11.225C11.2083 10.7417 11.8 10.5 12.5 10.5C13.2 10.5 13.7917 10.7417 14.275 11.225C14.7583 11.7083 15 12.3 15 13C15 13.7 14.7583 14.2917 14.275 14.775C13.7917 15.2583 13.2 15.5 12.5 15.5ZM4.5 21C3.95 21 3.47917 20.8042 3.0875 20.4125C2.69583 20.0208 2.5 19.55 2.5 19V7C2.5 6.45 2.69583 5.97917 3.0875 5.5875C3.47917 5.19583 3.95 5 4.5 5H7.65L9.5 3H15.5L17.35 5H20.5C21.05 5 21.5208 5.19583 21.9125 5.5875C22.3042 5.97917 22.5 6.45 22.5 7V19C22.5 19.55 22.3042 20.0208 21.9125 20.4125C21.5208 20.8042 21.05 21 20.5 21H4.5Z" fill="url(#paint0_linear_208_1123)"/>
  <defs>
    <linearGradient id="paint0_linear_208_1123" x1="12.5" y1="21" x2="12.5" y2="3" gradientUnits="userSpaceOnUse">
      <stop offset="0.533654" stop-color="#F2EAFD"/>
      <stop offset="1" stop-color="white"/>
    </linearGradient>
  </defs>
</svg>